<svg width="24" height="24" viewBox="0 0 24 24" fill="none" xmlns="http://www.w3.org/2000/svg">
<path fill-rule="evenodd" clip-rule="evenodd" d="M12.75 1.49976C18.1348 1.49976 22.5 5.86498 22.5 11.2498L22.5 12.7498C22.5 18.1345 18.1348 22.4998 12.75 22.4998L11.25 22.4998C5.86522 22.4998 1.5 18.1345 1.5 12.7498L1.5 11.2498C1.5 5.86498 5.86522 1.49976 11.25 1.49976L12.75 1.49976ZM12.9697 7.71943C12.6768 8.01232 12.6768 8.48719 12.9697 8.78009L15.4393 11.2498L6.75 11.2498C6.33579 11.2498 6 11.5855 6 11.9998C6 12.414 6.33579 12.7498 6.75 12.7498L15.4393 12.7498L12.9697 15.2194C12.6768 15.5123 12.6768 15.9872 12.9697 16.2801C13.2626 16.573 13.7374 16.573 14.0303 16.2801L17.7803 12.5301C18.0732 12.2372 18.0732 11.7623 17.7803 11.4694L14.0303 7.71943C13.7374 7.42653 13.2626 7.42653 12.9697 7.71943Z" fill="white"/>
</svg>
